<svg width="92" height="80" viewBox="0 0 92 80" fill="none" xmlns="http://www.w3.org/2000/svg">
<rect width="92" height="80" rx="10" fill="#E0E0E0"/>
<rect width="92" height="80" rx="10" fill="url(#paint0_linear_17_128)" fill-opacity="0.1"/>
<path d="M13.1052 57.45C14.1025 57.45 14.9972 57.6993 15.7892 58.198C16.5812 58.6967 17.2045 59.386 17.6592 60.266C18.1285 61.146 18.3632 62.158 18.3632 63.302C18.3632 64.4313 18.1285 65.4433 17.6592 66.338C17.2045 67.218 16.5812 67.9147 15.7892 68.428C15.0119 68.9267 14.1319 69.176 13.1492 69.176C12.6065 69.176 12.0932 69.0953 11.6092 68.934C11.1399 68.758 10.7072 68.538 10.3112 68.274C9.92985 67.9953 9.60719 67.6873 9.34319 67.35C9.07919 66.998 8.88852 66.6533 8.77119 66.316L9.25519 66.008V72.498C9.25519 72.7473 9.17452 72.96 9.01319 73.136C8.85185 73.312 8.63919 73.4 8.37519 73.4C8.12585 73.4 7.91319 73.312 7.73719 73.136C7.57585 72.9747 7.49519 72.762 7.49519 72.498V58.44C7.49519 58.1907 7.57585 57.9853 7.73719 57.824C7.91319 57.648 8.12585 57.56 8.37519 57.56C8.63919 57.56 8.85185 57.648 9.01319 57.824C9.17452 57.9853 9.25519 58.1907 9.25519 58.44V60.398L8.92519 60.222C9.02785 59.8553 9.20385 59.5033 9.45319 59.166C9.71719 58.8287 10.0325 58.5353 10.3992 58.286C10.7805 58.022 11.1985 57.8167 11.6532 57.67C12.1225 57.5233 12.6065 57.45 13.1052 57.45ZM12.9072 59.078C12.1739 59.078 11.5212 59.2613 10.9492 59.628C10.3919 59.9947 9.95185 60.4933 9.62919 61.124C9.32119 61.7547 9.16719 62.4807 9.16719 63.302C9.16719 64.1087 9.32119 64.8347 9.62919 65.48C9.95185 66.1253 10.3919 66.6313 10.9492 66.998C11.5212 67.3647 12.1739 67.548 12.9072 67.548C13.6405 67.548 14.2859 67.3647 14.8432 66.998C15.4005 66.6313 15.8405 66.1253 16.1632 65.48C16.4859 64.8347 16.6472 64.1087 16.6472 63.302C16.6472 62.4807 16.4859 61.7547 16.1632 61.124C15.8405 60.4933 15.4005 59.9947 14.8432 59.628C14.2859 59.2613 13.6405 59.078 12.9072 59.078ZM22.7029 68.098C22.7029 68.3473 22.6149 68.56 22.4389 68.736C22.2775 68.912 22.0722 69 21.8229 69C21.5589 69 21.3462 68.912 21.1849 68.736C21.0235 68.56 20.9429 68.3473 20.9429 68.098V58.33C20.9429 58.0807 21.0235 57.8753 21.1849 57.714C21.3609 57.538 21.5735 57.45 21.8229 57.45C22.0722 57.45 22.2775 57.538 22.4389 57.714C22.6149 57.8753 22.7029 58.0807 22.7029 58.33V68.098ZM21.8229 55.976C21.4562 55.976 21.1849 55.9027 21.0089 55.756C20.8329 55.6093 20.7449 55.382 20.7449 55.074V54.766C20.7449 54.458 20.8402 54.2307 21.0309 54.084C21.2215 53.9373 21.4929 53.864 21.8449 53.864C22.1969 53.864 22.4609 53.9373 22.6369 54.084C22.8129 54.2307 22.9009 54.458 22.9009 54.766V55.074C22.9009 55.382 22.8055 55.6093 22.6149 55.756C22.4389 55.9027 22.1749 55.976 21.8229 55.976ZM31.5183 57.34C32.5157 57.34 33.3003 57.5453 33.8723 57.956C34.4443 58.3667 34.8477 58.9167 35.0823 59.606C35.3317 60.2953 35.4563 61.0653 35.4563 61.916V68.098C35.4563 68.3473 35.3683 68.56 35.1923 68.736C35.031 68.912 34.8257 69 34.5763 69C34.327 69 34.1143 68.912 33.9383 68.736C33.777 68.56 33.6963 68.3473 33.6963 68.098V61.96C33.6963 61.4027 33.6083 60.904 33.4323 60.464C33.271 60.0093 32.9923 59.65 32.5963 59.386C32.215 59.1073 31.687 58.968 31.0123 58.968C30.3963 58.968 29.8317 59.1073 29.3183 59.386C28.805 59.65 28.3943 60.0093 28.0863 60.464C27.7783 60.904 27.6243 61.4027 27.6243 61.96V68.098C27.6243 68.3473 27.5363 68.56 27.3603 68.736C27.199 68.912 26.9937 69 26.7443 69C26.495 69 26.2823 68.912 26.1063 68.736C25.945 68.56 25.8643 68.3473 25.8643 68.098V58.506C25.8643 58.2567 25.945 58.0513 26.1063 57.89C26.2823 57.714 26.495 57.626 26.7443 57.626C27.0083 57.626 27.221 57.714 27.3823 57.89C27.5437 58.0513 27.6243 58.2567 27.6243 58.506V60.068L27.1843 60.552C27.2577 60.1707 27.4263 59.7893 27.6903 59.408C27.9543 59.012 28.2843 58.66 28.6803 58.352C29.0763 58.044 29.5163 57.802 30.0003 57.626C30.4843 57.4353 30.9903 57.34 31.5183 57.34Z" fill="black"/>
<path d="M48.084 52.72C48.3333 52.72 48.5387 52.808 48.7 52.984C48.876 53.1453 48.964 53.3507 48.964 53.6V68.098C48.964 68.3473 48.876 68.56 48.7 68.736C48.5387 68.912 48.3333 69 48.084 69C47.82 69 47.6073 68.912 47.446 68.736C47.2847 68.56 47.204 68.3473 47.204 68.098V66.008L47.622 65.854C47.622 66.206 47.512 66.58 47.292 66.976C47.072 67.3573 46.7713 67.7167 46.39 68.054C46.0087 68.3913 45.554 68.67 45.026 68.89C44.5127 69.11 43.9553 69.22 43.354 69.22C42.3713 69.22 41.4767 68.9633 40.67 68.45C39.878 67.9367 39.2473 67.2327 38.778 66.338C38.3233 65.4433 38.096 64.424 38.096 63.28C38.096 62.1213 38.3233 61.0947 38.778 60.2C39.2473 59.3053 39.878 58.6087 40.67 58.11C41.462 57.5967 42.342 57.34 43.31 57.34C43.926 57.34 44.5053 57.4427 45.048 57.648C45.5907 57.8533 46.06 58.132 46.456 58.484C46.8667 58.836 47.1893 59.2247 47.424 59.65C47.6587 60.0753 47.776 60.5007 47.776 60.926L47.204 60.794V53.6C47.204 53.3507 47.2847 53.1453 47.446 52.984C47.6073 52.808 47.82 52.72 48.084 52.72ZM43.552 67.592C44.2853 67.592 44.9307 67.4087 45.488 67.042C46.06 66.6607 46.5 66.1473 46.808 65.502C47.1307 64.842 47.292 64.1013 47.292 63.28C47.292 62.444 47.1307 61.7033 46.808 61.058C46.5 60.4127 46.06 59.9067 45.488 59.54C44.9307 59.1587 44.2853 58.968 43.552 58.968C42.8333 58.968 42.188 59.1587 41.616 59.54C41.0587 59.9067 40.6187 60.4127 40.296 61.058C39.9733 61.7033 39.812 62.444 39.812 63.28C39.812 64.0867 39.9733 64.82 40.296 65.48C40.6187 66.1253 41.0587 66.6387 41.616 67.02C42.188 67.4013 42.8333 67.592 43.552 67.592ZM63.0277 63.28C63.0277 64.424 62.771 65.4433 62.2577 66.338C61.759 67.2327 61.077 67.9367 60.2117 68.45C59.361 68.9633 58.4003 69.22 57.3297 69.22C56.259 69.22 55.291 68.9633 54.4257 68.45C53.5603 67.9367 52.871 67.2327 52.3577 66.338C51.859 65.4433 51.6097 64.424 51.6097 63.28C51.6097 62.136 51.859 61.1167 52.3577 60.222C52.871 59.3273 53.5603 58.6233 54.4257 58.11C55.291 57.5967 56.259 57.34 57.3297 57.34C58.4003 57.34 59.361 57.5967 60.2117 58.11C61.077 58.6233 61.759 59.3273 62.2577 60.222C62.771 61.1167 63.0277 62.136 63.0277 63.28ZM61.2677 63.28C61.2677 62.4293 61.0917 61.6813 60.7397 61.036C60.4023 60.3907 59.933 59.8847 59.3317 59.518C58.745 59.1513 58.0777 58.968 57.3297 58.968C56.5817 58.968 55.907 59.1513 55.3057 59.518C54.719 59.8847 54.2497 60.3907 53.8977 61.036C53.5457 61.6813 53.3697 62.4293 53.3697 63.28C53.3697 64.116 53.5457 64.8567 53.8977 65.502C54.2497 66.1473 54.719 66.6607 55.3057 67.042C55.907 67.4087 56.5817 67.592 57.3297 67.592C58.0777 67.592 58.745 67.4087 59.3317 67.042C59.933 66.6607 60.4023 66.1473 60.7397 65.502C61.0917 64.8567 61.2677 64.116 61.2677 63.28ZM70.7349 57.34C71.4829 57.34 72.1575 57.4207 72.7589 57.582C73.3602 57.7433 73.8369 57.9633 74.1889 58.242C74.5409 58.5207 74.7169 58.836 74.7169 59.188C74.7169 59.3787 74.6509 59.562 74.5189 59.738C74.3869 59.914 74.2109 60.002 73.9909 60.002C73.7855 60.002 73.6169 59.9653 73.4849 59.892C73.3675 59.8187 73.2502 59.7233 73.1329 59.606C73.0302 59.4887 72.8835 59.386 72.6929 59.298C72.5169 59.1953 72.2602 59.1147 71.9229 59.056C71.5855 58.9973 71.2482 58.968 70.9109 58.968C70.1042 58.968 69.3929 59.1587 68.7769 59.54C68.1755 59.9213 67.6989 60.4347 67.3469 61.08C66.9949 61.7253 66.8189 62.4587 66.8189 63.28C66.8189 64.1013 66.9875 64.8347 67.3249 65.48C67.6622 66.1253 68.1315 66.6387 68.7329 67.02C69.3342 67.4013 70.0309 67.592 70.8229 67.592C71.3362 67.592 71.7469 67.548 72.0549 67.46C72.3629 67.372 72.6195 67.2693 72.8249 67.152C73.0889 67.0053 73.2869 66.8587 73.4189 66.712C73.5655 66.5653 73.7562 66.492 73.9909 66.492C74.2402 66.492 74.4309 66.5727 74.5629 66.734C74.7095 66.8953 74.7829 67.0933 74.7829 67.328C74.7829 67.592 74.5995 67.8707 74.2329 68.164C73.8662 68.4573 73.3675 68.7067 72.7369 68.912C72.1209 69.1173 71.4169 69.22 70.6249 69.22C69.5102 69.22 68.5349 68.9633 67.6989 68.45C66.8629 67.922 66.2102 67.2107 65.7409 66.316C65.2862 65.4067 65.0589 64.3947 65.0589 63.28C65.0589 62.1653 65.2935 61.1607 65.7629 60.266C66.2469 59.3713 66.9142 58.66 67.7649 58.132C68.6155 57.604 69.6055 57.34 70.7349 57.34ZM76.9731 57.494C77.2517 57.494 77.4864 57.6187 77.6771 57.868L85.3331 67.636C85.4504 67.7973 85.5091 67.9733 85.5091 68.164C85.5091 68.4133 85.4211 68.626 85.2451 68.802C85.0691 68.978 84.8637 69.066 84.6291 69.066C84.3504 69.066 84.1084 68.934 83.9031 68.67L76.2471 58.924C76.1297 58.7627 76.0711 58.5867 76.0711 58.396C76.0711 58.132 76.1591 57.9193 76.3351 57.758C76.5257 57.582 76.7384 57.494 76.9731 57.494ZM76.9731 69.044C76.7824 69.044 76.5917 68.9707 76.4011 68.824C76.2104 68.6773 76.1151 68.4867 76.1151 68.252C76.1151 68.0613 76.1884 67.878 76.3351 67.702L79.9431 63.148L80.8671 64.6L77.6771 68.692C77.5011 68.9267 77.2664 69.044 76.9731 69.044ZM84.6291 57.494C84.8784 57.494 85.0764 57.5747 85.2231 57.736C85.3844 57.8973 85.4651 58.0807 85.4651 58.286C85.4651 58.374 85.4431 58.4693 85.3991 58.572C85.3697 58.6747 85.3184 58.77 85.2451 58.858L81.6591 63.456L80.7351 62.114L83.9031 57.89C84.1084 57.626 84.3504 57.494 84.6291 57.494Z" fill="#0E533C"/>
<g clip-path="url(#clip0_17_128)">
<path fill-rule="evenodd" clip-rule="evenodd" d="M20 35.2783C20 34.9716 20.0943 34.6774 20.2621 34.4605C20.43 34.2437 20.6576 34.1218 20.8949 34.1218H34.2367C34.4741 34.1218 34.7017 34.2437 34.8696 34.4605C35.0374 34.6774 35.1317 34.9716 35.1317 35.2783C35.1317 35.5851 35.0374 35.8792 34.8696 36.0961C34.7017 36.313 34.4741 36.4348 34.2367 36.4348H20.8949C20.6576 36.4348 20.43 36.313 20.2621 36.0961C20.0943 35.8792 20 35.5851 20 35.2783ZM20 28.3392C20 28.0324 20.0943 27.7383 20.2621 27.5214C20.43 27.3045 20.6576 27.1826 20.8949 27.1826H30.7391C30.9765 27.1826 31.2041 27.3045 31.3719 27.5214C31.5398 27.7383 31.6341 28.0324 31.6341 28.3392C31.6341 28.6459 31.5398 28.9401 31.3719 29.157C31.2041 29.3738 30.9765 29.4957 30.7391 29.4957H20.8949C20.6576 29.4957 20.43 29.3738 20.2621 29.157C20.0943 28.9401 20 28.6459 20 28.3392ZM20 21.4C20 21.0933 20.0943 20.7991 20.2621 20.5822C20.43 20.3654 20.6576 20.2435 20.8949 20.2435H40.6522C40.8896 20.2435 41.1171 20.3654 41.285 20.5822C41.4528 20.7991 41.5472 21.0933 41.5472 21.4C41.5472 21.7068 41.4528 22.0009 41.285 22.2178C41.1171 22.4347 40.8896 22.5566 40.6522 22.5566H20.8949C20.6576 22.5566 20.43 22.4347 20.2621 22.2178C20.0943 22.0009 20 21.7068 20 21.4ZM20 14.4609C20 14.1542 20.0943 13.86 20.2621 13.6431C20.43 13.4262 20.6576 13.3044 20.8949 13.3044L45.1773 13.3044C45.4146 13.3044 45.6422 13.4262 45.8101 13.6431C45.978 13.86 46.0721 14.1542 46.0721 14.4609C46.0721 14.7676 45.978 15.0618 45.8101 15.2787C45.6422 15.4956 45.4146 15.6174 45.1773 15.6174H20.8949C20.6576 15.6174 20.43 15.4956 20.2621 15.2787C20.0943 15.0618 20 14.7676 20 14.4609Z" fill="#2D2D2D"/>
</g>
<g clip-path="url(#clip1_17_128)">
<path d="M58.1827 11.3655C57.6696 10.8509 57.0429 10.4639 56.3531 10.2355C55.6632 10.0071 54.9294 9.94367 54.2106 10.0503C53.4917 10.157 52.808 10.4307 52.2141 10.8496C51.6203 11.2685 51.1331 11.8208 50.7914 12.4621L44.5337 24.2029L35.8258 27.1056C35.5751 27.1889 35.3499 27.3348 35.1715 27.5296C34.9932 27.7245 34.8676 27.9616 34.8068 28.2187C34.7459 28.4758 34.7518 28.7441 34.8239 28.9982C34.896 29.2523 35.0318 29.4838 35.2186 29.6706L41.8696 36.3185L33.6697 44.5184L33.2174 47.1609L35.8598 46.7087L44.0598 38.5086L50.7078 45.1597C50.8945 45.3464 51.126 45.4822 51.3801 45.5544C51.6342 45.6265 51.9025 45.6323 52.1596 45.5715C52.4166 45.5107 52.6537 45.3851 52.8487 45.2067C53.0435 45.0284 53.1895 44.8032 53.2728 44.5526L56.1753 35.8476L67.882 29.5776C68.5201 29.2353 69.0694 28.7487 69.4859 28.1564C69.9026 27.5641 70.175 26.8827 70.2816 26.1665C70.388 25.4503 70.3257 24.7191 70.0995 24.0313C69.8734 23.3434 69.4896 22.718 68.9787 22.2048L58.1827 11.3655Z" fill="#0E533C"/>
</g>
<defs>
<linearGradient id="paint0_linear_17_128" x1="46" y1="0" x2="46" y2="80" gradientUnits="userSpaceOnUse">
<stop stop-opacity="0"/>
<stop offset="1"/>
</linearGradient>
<clipPath id="clip0_17_128">
<rect width="26.4348" height="23.1304" fill="white" transform="translate(20 13.3044)"/>
</clipPath>
<clipPath id="clip1_17_128">
<rect width="38" height="38" fill="white" transform="translate(33.2174 10)"/>
</clipPath>
</defs>
</svg>
