<svg width="155" height="64" viewBox="0 0 155 64" fill="none" xmlns="http://www.w3.org/2000/svg">
<rect width="155" height="64" rx="10" fill="#E0E0E0"/>
<rect width="155" height="64" rx="10" fill="url(#paint0_linear_17_127)" fill-opacity="0.1"/>
<g clip-path="url(#clip0_17_127)">
<g clip-path="url(#clip1_17_127)">
<g clip-path="url(#clip2_17_127)">
<path fill-rule="evenodd" clip-rule="evenodd" d="M9 39.6131C9 39.3145 9.09181 39.028 9.25522 38.8168C9.41864 38.6057 9.64027 38.487 9.87138 38.487H22.8621C23.0932 38.487 23.3148 38.6057 23.4783 38.8168C23.6417 39.028 23.7335 39.3145 23.7335 39.6131C23.7335 39.9118 23.6417 40.1981 23.4783 40.4094C23.3148 40.6206 23.0932 40.7391 22.8621 40.7391H9.87138C9.64027 40.7391 9.41864 40.6206 9.25522 40.4094C9.09181 40.1981 9 39.9118 9 39.6131ZM9 32.8565C9 32.5579 9.09181 32.2715 9.25522 32.0603C9.41864 31.8491 9.64027 31.7305 9.87138 31.7305H19.4565C19.6876 31.7305 19.9093 31.8491 20.0727 32.0603C20.2361 32.2715 20.3279 32.5579 20.3279 32.8565C20.3279 33.1552 20.2361 33.4416 20.0727 33.6528C19.9093 33.864 19.6876 33.9826 19.4565 33.9826H9.87138C9.64027 33.9826 9.41864 33.864 9.25522 33.6528C9.09181 33.4416 9 33.1552 9 32.8565ZM9 26.1C9 25.8014 9.09181 25.5149 9.25522 25.3037C9.41864 25.0926 9.64027 24.9739 9.87138 24.9739H29.1087C29.3399 24.9739 29.5614 25.0926 29.7248 25.3037C29.8883 25.5149 29.9801 25.8014 29.9801 26.1C29.9801 26.3987 29.8883 26.6851 29.7248 26.8963C29.5614 27.1075 29.3399 27.2261 29.1087 27.2261H9.87138C9.64027 27.2261 9.41864 27.1075 9.25522 26.8963C9.09181 26.6851 9 26.3987 9 26.1ZM9 19.3435C9 19.0448 9.09181 18.7584 9.25522 18.5472C9.41864 18.336 9.64027 18.2174 9.87138 18.2174L33.5148 18.2174C33.7458 18.2174 33.9674 18.336 34.1309 18.5472C34.2943 18.7584 34.386 19.0448 34.386 19.3435C34.386 19.6422 34.2943 19.9286 34.1309 20.1398C33.9674 20.3509 33.7458 20.4696 33.5148 20.4696H9.87138C9.64027 20.4696 9.41864 20.3509 9.25522 20.1398C9.09181 19.9286 9 19.6422 9 19.3435Z" fill="#2D2D2D"/>
</g>
<g clip-path="url(#clip3_17_127)">
<path d="M46.1779 16.3296C45.6783 15.8286 45.0681 15.4517 44.3965 15.2293C43.7247 15.0069 43.0103 14.9451 42.3103 15.049C41.6104 15.1528 40.9447 15.4194 40.3664 15.8272C39.7882 16.2351 39.3138 16.7728 38.9811 17.3973L32.8881 28.8291L24.4093 31.6555C24.1652 31.7366 23.9459 31.8786 23.7723 32.0683C23.5986 32.2581 23.4764 32.4889 23.4171 32.7392C23.3579 32.9896 23.3636 33.2508 23.4338 33.4982C23.504 33.7457 23.6363 33.971 23.8181 34.153L30.2941 40.6259L22.31 48.61L21.8696 51.1829L24.4425 50.7426L32.4266 42.7584L38.8997 49.2345C39.0815 49.4163 39.3069 49.5485 39.5543 49.6188C39.8017 49.689 40.063 49.6946 40.3133 49.6354C40.5636 49.5762 40.7944 49.4539 40.9843 49.2802C41.1739 49.1066 41.3161 48.8873 41.3972 48.6433L44.2234 40.1674L55.6219 34.0624C56.2432 33.7291 56.7781 33.2553 57.1837 32.6786C57.5894 32.1019 57.8547 31.4385 57.9584 30.7411C58.062 30.0438 58.0014 29.3318 57.7811 28.6621C57.5609 27.9923 57.1872 27.3833 56.6898 26.8836L46.1779 16.3296Z" fill="#0E533C"/>
</g>
</g>
</g>
<path d="M72.238 28.45C73.2353 28.45 74.13 28.6993 74.922 29.198C75.714 29.6967 76.3373 30.386 76.792 31.266C77.2613 32.146 77.496 33.158 77.496 34.302C77.496 35.4313 77.2613 36.4433 76.792 37.338C76.3373 38.218 75.714 38.9147 74.922 39.428C74.1447 39.9267 73.2647 40.176 72.282 40.176C71.7393 40.176 71.226 40.0953 70.742 39.934C70.2727 39.758 69.84 39.538 69.444 39.274C69.0627 38.9953 68.74 38.6873 68.476 38.35C68.212 37.998 68.0213 37.6533 67.904 37.316L68.388 37.008V43.498C68.388 43.7473 68.3073 43.96 68.146 44.136C67.9847 44.312 67.772 44.4 67.508 44.4C67.2587 44.4 67.046 44.312 66.87 44.136C66.7087 43.9747 66.628 43.762 66.628 43.498V29.44C66.628 29.1907 66.7087 28.9853 66.87 28.824C67.046 28.648 67.2587 28.56 67.508 28.56C67.772 28.56 67.9847 28.648 68.146 28.824C68.3073 28.9853 68.388 29.1907 68.388 29.44V31.398L68.058 31.222C68.1607 30.8553 68.3367 30.5033 68.586 30.166C68.85 29.8287 69.1653 29.5353 69.532 29.286C69.9133 29.022 70.3313 28.8167 70.786 28.67C71.2553 28.5233 71.7393 28.45 72.238 28.45ZM72.04 30.078C71.3067 30.078 70.654 30.2613 70.082 30.628C69.5247 30.9947 69.0847 31.4933 68.762 32.124C68.454 32.7547 68.3 33.4807 68.3 34.302C68.3 35.1087 68.454 35.8347 68.762 36.48C69.0847 37.1253 69.5247 37.6313 70.082 37.998C70.654 38.3647 71.3067 38.548 72.04 38.548C72.7733 38.548 73.4187 38.3647 73.976 37.998C74.5333 37.6313 74.9733 37.1253 75.296 36.48C75.6187 35.8347 75.78 35.1087 75.78 34.302C75.78 33.4807 75.6187 32.7547 75.296 32.124C74.9733 31.4933 74.5333 30.9947 73.976 30.628C73.4187 30.2613 72.7733 30.078 72.04 30.078ZM81.8357 39.098C81.8357 39.3473 81.7477 39.56 81.5717 39.736C81.4103 39.912 81.205 40 80.9557 40C80.6917 40 80.479 39.912 80.3177 39.736C80.1563 39.56 80.0757 39.3473 80.0757 39.098V29.33C80.0757 29.0807 80.1563 28.8753 80.3177 28.714C80.4937 28.538 80.7063 28.45 80.9557 28.45C81.205 28.45 81.4103 28.538 81.5717 28.714C81.7477 28.8753 81.8357 29.0807 81.8357 29.33V39.098ZM80.9557 26.976C80.589 26.976 80.3177 26.9027 80.1417 26.756C79.9657 26.6093 79.8777 26.382 79.8777 26.074V25.766C79.8777 25.458 79.973 25.2307 80.1637 25.084C80.3543 24.9373 80.6257 24.864 80.9777 24.864C81.3297 24.864 81.5937 24.9373 81.7697 25.084C81.9457 25.2307 82.0337 25.458 82.0337 25.766V26.074C82.0337 26.382 81.9383 26.6093 81.7477 26.756C81.5717 26.9027 81.3077 26.976 80.9557 26.976ZM90.6511 28.34C91.6485 28.34 92.4331 28.5453 93.0051 28.956C93.5771 29.3667 93.9805 29.9167 94.2151 30.606C94.4645 31.2953 94.5891 32.0653 94.5891 32.916V39.098C94.5891 39.3473 94.5011 39.56 94.3251 39.736C94.1638 39.912 93.9585 40 93.7091 40C93.4598 40 93.2471 39.912 93.0711 39.736C92.9098 39.56 92.8291 39.3473 92.8291 39.098V32.96C92.8291 32.4027 92.7411 31.904 92.5651 31.464C92.4038 31.0093 92.1251 30.65 91.7291 30.386C91.3478 30.1073 90.8198 29.968 90.1451 29.968C89.5291 29.968 88.9645 30.1073 88.4511 30.386C87.9378 30.65 87.5271 31.0093 87.2191 31.464C86.9111 31.904 86.7571 32.4027 86.7571 32.96V39.098C86.7571 39.3473 86.6691 39.56 86.4931 39.736C86.3318 39.912 86.1265 40 85.8771 40C85.6278 40 85.4151 39.912 85.2391 39.736C85.0778 39.56 84.9971 39.3473 84.9971 39.098V29.506C84.9971 29.2567 85.0778 29.0513 85.2391 28.89C85.4151 28.714 85.6278 28.626 85.8771 28.626C86.1411 28.626 86.3538 28.714 86.5151 28.89C86.6765 29.0513 86.7571 29.2567 86.7571 29.506V31.068L86.3171 31.552C86.3905 31.1707 86.5591 30.7893 86.8231 30.408C87.0871 30.012 87.4171 29.66 87.8131 29.352C88.2091 29.044 88.6491 28.802 89.1331 28.626C89.6171 28.4353 90.1231 28.34 90.6511 28.34Z" fill="black"/>
<path d="M107.217 23.72C107.466 23.72 107.671 23.808 107.833 23.984C108.009 24.1453 108.097 24.3507 108.097 24.6V39.098C108.097 39.3473 108.009 39.56 107.833 39.736C107.671 39.912 107.466 40 107.217 40C106.953 40 106.74 39.912 106.579 39.736C106.417 39.56 106.337 39.3473 106.337 39.098V37.008L106.755 36.854C106.755 37.206 106.645 37.58 106.425 37.976C106.205 38.3573 105.904 38.7167 105.523 39.054C105.141 39.3913 104.687 39.67 104.159 39.89C103.645 40.11 103.088 40.22 102.487 40.22C101.504 40.22 100.609 39.9633 99.8028 39.45C99.0108 38.9367 98.3801 38.2327 97.9108 37.338C97.4561 36.4433 97.2288 35.424 97.2288 34.28C97.2288 33.1213 97.4561 32.0947 97.9108 31.2C98.3801 30.3053 99.0108 29.6087 99.8028 29.11C100.595 28.5967 101.475 28.34 102.443 28.34C103.059 28.34 103.638 28.4427 104.181 28.648C104.723 28.8533 105.193 29.132 105.589 29.484C105.999 29.836 106.322 30.2247 106.557 30.65C106.791 31.0753 106.909 31.5007 106.909 31.926L106.337 31.794V24.6C106.337 24.3507 106.417 24.1453 106.579 23.984C106.74 23.808 106.953 23.72 107.217 23.72ZM102.685 38.592C103.418 38.592 104.063 38.4087 104.621 38.042C105.193 37.6607 105.633 37.1473 105.941 36.502C106.263 35.842 106.425 35.1013 106.425 34.28C106.425 33.444 106.263 32.7033 105.941 32.058C105.633 31.4127 105.193 30.9067 104.621 30.54C104.063 30.1587 103.418 29.968 102.685 29.968C101.966 29.968 101.321 30.1587 100.749 30.54C100.191 30.9067 99.7515 31.4127 99.4288 32.058C99.1061 32.7033 98.9448 33.444 98.9448 34.28C98.9448 35.0867 99.1061 35.82 99.4288 36.48C99.7515 37.1253 100.191 37.6387 100.749 38.02C101.321 38.4013 101.966 38.592 102.685 38.592ZM122.16 34.28C122.16 35.424 121.904 36.4433 121.39 37.338C120.892 38.2327 120.21 38.9367 119.344 39.45C118.494 39.9633 117.533 40.22 116.462 40.22C115.392 40.22 114.424 39.9633 113.558 39.45C112.693 38.9367 112.004 38.2327 111.49 37.338C110.992 36.4433 110.742 35.424 110.742 34.28C110.742 33.136 110.992 32.1167 111.49 31.222C112.004 30.3273 112.693 29.6233 113.558 29.11C114.424 28.5967 115.392 28.34 116.462 28.34C117.533 28.34 118.494 28.5967 119.344 29.11C120.21 29.6233 120.892 30.3273 121.39 31.222C121.904 32.1167 122.16 33.136 122.16 34.28ZM120.4 34.28C120.4 33.4293 120.224 32.6813 119.872 32.036C119.535 31.3907 119.066 30.8847 118.464 30.518C117.878 30.1513 117.21 29.968 116.462 29.968C115.714 29.968 115.04 30.1513 114.438 30.518C113.852 30.8847 113.382 31.3907 113.03 32.036C112.678 32.6813 112.502 33.4293 112.502 34.28C112.502 35.116 112.678 35.8567 113.03 36.502C113.382 37.1473 113.852 37.6607 114.438 38.042C115.04 38.4087 115.714 38.592 116.462 38.592C117.21 38.592 117.878 38.4087 118.464 38.042C119.066 37.6607 119.535 37.1473 119.872 36.502C120.224 35.8567 120.4 35.116 120.4 34.28ZM129.868 28.34C130.616 28.34 131.29 28.4207 131.892 28.582C132.493 28.7433 132.97 28.9633 133.322 29.242C133.674 29.5207 133.85 29.836 133.85 30.188C133.85 30.3787 133.784 30.562 133.652 30.738C133.52 30.914 133.344 31.002 133.124 31.002C132.918 31.002 132.75 30.9653 132.618 30.892C132.5 30.8187 132.383 30.7233 132.266 30.606C132.163 30.4887 132.016 30.386 131.826 30.298C131.65 30.1953 131.393 30.1147 131.056 30.056C130.718 29.9973 130.381 29.968 130.044 29.968C129.237 29.968 128.526 30.1587 127.91 30.54C127.308 30.9213 126.832 31.4347 126.48 32.08C126.128 32.7253 125.952 33.4587 125.952 34.28C125.952 35.1013 126.12 35.8347 126.458 36.48C126.795 37.1253 127.264 37.6387 127.866 38.02C128.467 38.4013 129.164 38.592 129.956 38.592C130.469 38.592 130.88 38.548 131.188 38.46C131.496 38.372 131.752 38.2693 131.958 38.152C132.222 38.0053 132.42 37.8587 132.552 37.712C132.698 37.5653 132.889 37.492 133.124 37.492C133.373 37.492 133.564 37.5727 133.696 37.734C133.842 37.8953 133.916 38.0933 133.916 38.328C133.916 38.592 133.732 38.8707 133.366 39.164C132.999 39.4573 132.5 39.7067 131.87 39.912C131.254 40.1173 130.55 40.22 129.758 40.22C128.643 40.22 127.668 39.9633 126.832 39.45C125.996 38.922 125.343 38.2107 124.874 37.316C124.419 36.4067 124.192 35.3947 124.192 34.28C124.192 33.1653 124.426 32.1607 124.896 31.266C125.38 30.3713 126.047 29.66 126.898 29.132C127.748 28.604 128.738 28.34 129.868 28.34ZM136.106 28.494C136.385 28.494 136.619 28.6187 136.81 28.868L144.466 38.636C144.583 38.7973 144.642 38.9733 144.642 39.164C144.642 39.4133 144.554 39.626 144.378 39.802C144.202 39.978 143.997 40.066 143.762 40.066C143.483 40.066 143.241 39.934 143.036 39.67L135.38 29.924C135.263 29.7627 135.204 29.5867 135.204 29.396C135.204 29.132 135.292 28.9193 135.468 28.758C135.659 28.582 135.871 28.494 136.106 28.494ZM136.106 40.044C135.915 40.044 135.725 39.9707 135.534 39.824C135.343 39.6773 135.248 39.4867 135.248 39.252C135.248 39.0613 135.321 38.878 135.468 38.702L139.076 34.148L140 35.6L136.81 39.692C136.634 39.9267 136.399 40.044 136.106 40.044ZM143.762 28.494C144.011 28.494 144.209 28.5747 144.356 28.736C144.517 28.8973 144.598 29.0807 144.598 29.286C144.598 29.374 144.576 29.4693 144.532 29.572C144.503 29.6747 144.451 29.77 144.378 29.858L140.792 34.456L139.868 33.114L143.036 28.89C143.241 28.626 143.483 28.494 143.762 28.494Z" fill="#0E533C"/>
<defs>
<linearGradient id="paint0_linear_17_127" x1="77.5" y1="0" x2="77.5" y2="64" gradientUnits="userSpaceOnUse">
<stop stop-opacity="0"/>
<stop offset="1"/>
</linearGradient>
<clipPath id="clip0_17_127">
<rect width="64" height="64" fill="white"/>
</clipPath>
<clipPath id="clip1_17_127">
<rect width="64" height="64" fill="white"/>
</clipPath>
<clipPath id="clip2_17_127">
<rect width="25.7391" height="22.5217" fill="white" transform="translate(9 18.2174)"/>
</clipPath>
<clipPath id="clip3_17_127">
<rect width="37" height="37" fill="white" transform="translate(21.8696 15)"/>
</clipPath>
</defs>
</svg>
