<svg width="64" height="64" viewBox="0 0 64 64" fill="none" xmlns="http://www.w3.org/2000/svg">
<g clip-path="url(#clip0_13_13)">
<rect width="64" height="64" fill="#E0E0E0"/>
<rect width="64" height="64" fill="url(#paint0_linear_13_13)" fill-opacity="0.1"/>
<g clip-path="url(#clip1_13_13)">
<g clip-path="url(#clip2_13_13)">
<path fill-rule="evenodd" clip-rule="evenodd" d="M9 39.6131C9 39.3145 9.09181 39.028 9.25522 38.8168C9.41864 38.6057 9.64027 38.487 9.87138 38.487H22.8621C23.0932 38.487 23.3148 38.6057 23.4783 38.8168C23.6417 39.028 23.7335 39.3145 23.7335 39.6131C23.7335 39.9118 23.6417 40.1981 23.4783 40.4094C23.3148 40.6206 23.0932 40.7391 22.8621 40.7391H9.87138C9.64027 40.7391 9.41864 40.6206 9.25522 40.4094C9.09181 40.1981 9 39.9118 9 39.6131ZM9 32.8565C9 32.5579 9.09181 32.2715 9.25522 32.0603C9.41864 31.8491 9.64027 31.7305 9.87138 31.7305H19.4565C19.6876 31.7305 19.9093 31.8491 20.0727 32.0603C20.2361 32.2715 20.3279 32.5579 20.3279 32.8565C20.3279 33.1552 20.2361 33.4416 20.0727 33.6528C19.9093 33.864 19.6876 33.9826 19.4565 33.9826H9.87138C9.64027 33.9826 9.41864 33.864 9.25522 33.6528C9.09181 33.4416 9 33.1552 9 32.8565ZM9 26.1C9 25.8014 9.09181 25.5149 9.25522 25.3037C9.41864 25.0926 9.64027 24.9739 9.87138 24.9739H29.1087C29.3399 24.9739 29.5614 25.0926 29.7248 25.3037C29.8883 25.5149 29.9801 25.8014 29.9801 26.1C29.9801 26.3987 29.8883 26.6851 29.7248 26.8963C29.5614 27.1075 29.3399 27.2261 29.1087 27.2261H9.87138C9.64027 27.2261 9.41864 27.1075 9.25522 26.8963C9.09181 26.6851 9 26.3987 9 26.1ZM9 19.3435C9 19.0448 9.09181 18.7584 9.25522 18.5472C9.41864 18.336 9.64027 18.2174 9.87138 18.2174L33.5148 18.2174C33.7458 18.2174 33.9674 18.336 34.1309 18.5472C34.2943 18.7584 34.386 19.0448 34.386 19.3435C34.386 19.6422 34.2943 19.9286 34.1309 20.1398C33.9674 20.3509 33.7458 20.4696 33.5148 20.4696H9.87138C9.64027 20.4696 9.41864 20.3509 9.25522 20.1398C9.09181 19.9286 9 19.6422 9 19.3435Z" fill="#2D2D2D"/>
</g>
<g clip-path="url(#clip3_13_13)">
<path d="M46.1779 16.3296C45.6783 15.8286 45.0681 15.4517 44.3965 15.2293C43.7247 15.0069 43.0102 14.9451 42.3103 15.049C41.6104 15.1528 40.9447 15.4194 40.3664 15.8272C39.7882 16.2351 39.3138 16.7728 38.9811 17.3973L32.8881 28.8291L24.4093 31.6555C24.1652 31.7366 23.9459 31.8786 23.7723 32.0683C23.5986 32.2581 23.4764 32.4889 23.4171 32.7392C23.3579 32.9896 23.3636 33.2508 23.4338 33.4982C23.504 33.7457 23.6363 33.971 23.8181 34.153L30.2941 40.6259L22.3099 48.61L21.8696 51.1829L24.4425 50.7426L32.4266 42.7584L38.8997 49.2345C39.0815 49.4163 39.3069 49.5485 39.5543 49.6188C39.8017 49.689 40.063 49.6946 40.3133 49.6354C40.5636 49.5762 40.7944 49.4539 40.9843 49.2802C41.1739 49.1066 41.3161 48.8873 41.3972 48.6433L44.2234 40.1674L55.6219 34.0624C56.2432 33.7291 56.7781 33.2553 57.1837 32.6786C57.5894 32.1019 57.8546 31.4385 57.9584 30.7411C58.062 30.0438 58.0014 29.3318 57.7811 28.6621C57.5609 27.9923 57.1872 27.3833 56.6898 26.8836L46.1779 16.3296Z" fill="#0E533C"/>
</g>
</g>
</g>
<defs>
<linearGradient id="paint0_linear_13_13" x1="32" y1="0" x2="32" y2="64" gradientUnits="userSpaceOnUse">
<stop stop-opacity="0"/>
<stop offset="1"/>
</linearGradient>
<clipPath id="clip0_13_13">
<rect width="64" height="64" fill="white"/>
</clipPath>
<clipPath id="clip1_13_13">
<rect width="64" height="64" fill="white"/>
</clipPath>
<clipPath id="clip2_13_13">
<rect width="25.7391" height="22.5217" fill="white" transform="translate(9 18.2174)"/>
</clipPath>
<clipPath id="clip3_13_13">
<rect width="37" height="37" fill="white" transform="translate(21.8696 15)"/>
</clipPath>
</defs>
</svg>
