<svg width="92" height="80" viewBox="0 0 92 80" fill="none" xmlns="http://www.w3.org/2000/svg">
<rect width="92" height="80" rx="10" fill="#E0E0E0"/>
<rect width="92" height="80" rx="10" fill="url(#paint0_linear_33_148)" fill-opacity="0.1"/>
<path d="M15.0173 57.45C16.0146 57.45 16.9093 57.6993 17.7013 58.198C18.4933 58.6967 19.1166 59.386 19.5713 60.266C20.0406 61.146 20.2753 62.158 20.2753 63.302C20.2753 64.4313 20.0406 65.4433 19.5713 66.338C19.1166 67.218 18.4933 67.9147 17.7013 68.428C16.924 68.9267 16.044 69.176 15.0613 69.176C14.5186 69.176 14.0053 69.0953 13.5213 68.934C13.052 68.758 12.6193 68.538 12.2233 68.274C11.842 67.9953 11.5193 67.6873 11.2553 67.35C10.9913 66.998 10.8006 66.6533 10.6833 66.316L11.1673 66.008V72.498C11.1673 72.7473 11.0866 72.96 10.9253 73.136C10.764 73.312 10.5513 73.4 10.2873 73.4C10.038 73.4 9.8253 73.312 9.6493 73.136C9.48796 72.9747 9.4073 72.762 9.4073 72.498V58.44C9.4073 58.1907 9.48796 57.9853 9.6493 57.824C9.8253 57.648 10.038 57.56 10.2873 57.56C10.5513 57.56 10.764 57.648 10.9253 57.824C11.0866 57.9853 11.1673 58.1907 11.1673 58.44V60.398L10.8373 60.222C10.94 59.8553 11.116 59.5033 11.3653 59.166C11.6293 58.8287 11.9446 58.5353 12.3113 58.286C12.6926 58.022 13.1106 57.8167 13.5653 57.67C14.0346 57.5233 14.5186 57.45 15.0173 57.45ZM14.8193 59.078C14.086 59.078 13.4333 59.2613 12.8613 59.628C12.304 59.9947 11.864 60.4933 11.5413 61.124C11.2333 61.7547 11.0793 62.4807 11.0793 63.302C11.0793 64.1087 11.2333 64.8347 11.5413 65.48C11.864 66.1253 12.304 66.6313 12.8613 66.998C13.4333 67.3647 14.086 67.548 14.8193 67.548C15.5526 67.548 16.198 67.3647 16.7553 66.998C17.3126 66.6313 17.7526 66.1253 18.0753 65.48C18.398 64.8347 18.5593 64.1087 18.5593 63.302C18.5593 62.4807 18.398 61.7547 18.0753 61.124C17.7526 60.4933 17.3126 59.9947 16.7553 59.628C16.198 59.2613 15.5526 59.078 14.8193 59.078ZM24.857 68.098C24.857 68.3473 24.769 68.56 24.593 68.736C24.417 68.912 24.2043 69 23.955 69C23.7056 69 23.5003 68.912 23.339 68.736C23.1776 68.56 23.097 68.3473 23.097 68.098V53.6C23.097 53.3507 23.1776 53.1453 23.339 52.984C23.515 52.808 23.7276 52.72 23.977 52.72C24.241 52.72 24.4536 52.808 24.615 52.984C24.7763 53.1453 24.857 53.3507 24.857 53.6V68.098ZM37.6426 57.516C37.8919 57.516 38.0972 57.604 38.2586 57.78C38.4346 57.9413 38.5226 58.1467 38.5226 58.396V68.098C38.5226 68.3473 38.4346 68.56 38.2586 68.736C38.0972 68.912 37.8919 69 37.6426 69C37.3786 69 37.1659 68.912 37.0046 68.736C36.8432 68.56 36.7626 68.3473 36.7626 68.098V66.008L37.1806 65.964C37.1806 66.2867 37.0706 66.6387 36.8506 67.02C36.6306 67.4013 36.3299 67.7607 35.9486 68.098C35.5672 68.4207 35.1126 68.692 34.5846 68.912C34.0712 69.1173 33.5139 69.22 32.9126 69.22C31.9152 69.22 31.0206 68.9633 30.2286 68.45C29.4366 67.922 28.8059 67.2107 28.3366 66.316C27.8819 65.4213 27.6546 64.402 27.6546 63.258C27.6546 62.0993 27.8819 61.08 28.3366 60.2C28.8059 59.3053 29.4366 58.6087 30.2286 58.11C31.0206 57.5967 31.9006 57.34 32.8686 57.34C33.4992 57.34 34.0859 57.4427 34.6286 57.648C35.1712 57.8533 35.6406 58.132 36.0366 58.484C36.4472 58.836 36.7626 59.2247 36.9826 59.65C37.2172 60.0753 37.3346 60.5007 37.3346 60.926L36.7626 60.794V58.396C36.7626 58.1467 36.8432 57.9413 37.0046 57.78C37.1659 57.604 37.3786 57.516 37.6426 57.516ZM33.1106 67.592C33.8439 67.592 34.4892 67.4013 35.0466 67.02C35.6186 66.6387 36.0586 66.1253 36.3666 65.48C36.6892 64.82 36.8506 64.0793 36.8506 63.258C36.8506 62.4513 36.6892 61.7253 36.3666 61.08C36.0586 60.42 35.6186 59.9067 35.0466 59.54C34.4892 59.1587 33.8439 58.968 33.1106 58.968C32.3919 58.968 31.7466 59.1513 31.1746 59.518C30.6172 59.8847 30.1772 60.3907 29.8546 61.036C29.5319 61.6813 29.3706 62.422 29.3706 63.258C29.3706 64.0793 29.5246 64.82 29.8326 65.48C30.1552 66.1253 30.5952 66.6387 31.1526 67.02C31.7246 67.4013 32.3772 67.592 33.1106 67.592ZM47.4383 57.34C48.4356 57.34 49.2203 57.5453 49.7923 57.956C50.3643 58.3667 50.7676 58.9167 51.0023 59.606C51.2516 60.2953 51.3763 61.0653 51.3763 61.916V68.098C51.3763 68.3473 51.2883 68.56 51.1123 68.736C50.9509 68.912 50.7456 69 50.4963 69C50.2469 69 50.0343 68.912 49.8583 68.736C49.6969 68.56 49.6163 68.3473 49.6163 68.098V61.96C49.6163 61.4027 49.5283 60.904 49.3523 60.464C49.1909 60.0093 48.9123 59.65 48.5163 59.386C48.1349 59.1073 47.6069 58.968 46.9323 58.968C46.3163 58.968 45.7516 59.1073 45.2383 59.386C44.7249 59.65 44.3143 60.0093 44.0063 60.464C43.6983 60.904 43.5443 61.4027 43.5443 61.96V68.098C43.5443 68.3473 43.4563 68.56 43.2803 68.736C43.1189 68.912 42.9136 69 42.6643 69C42.4149 69 42.2023 68.912 42.0263 68.736C41.8649 68.56 41.7843 68.3473 41.7843 68.098V58.506C41.7843 58.2567 41.8649 58.0513 42.0263 57.89C42.2023 57.714 42.4149 57.626 42.6643 57.626C42.9283 57.626 43.1409 57.714 43.3023 57.89C43.4636 58.0513 43.5443 58.2567 43.5443 58.506V60.068L43.1043 60.552C43.1776 60.1707 43.3463 59.7893 43.6103 59.408C43.8743 59.012 44.2043 58.66 44.6003 58.352C44.9963 58.044 45.4363 57.802 45.9203 57.626C46.4043 57.4353 46.9103 57.34 47.4383 57.34Z" fill="#2D2D2D"/>
<path d="M60.2419 57.45C61.2392 57.45 62.1339 57.6993 62.9259 58.198C63.7179 58.6967 64.3412 59.386 64.7959 60.266C65.2652 61.146 65.4999 62.158 65.4999 63.302C65.4999 64.4313 65.2652 65.4433 64.7959 66.338C64.3412 67.218 63.7179 67.9147 62.9259 68.428C62.1486 68.9267 61.2686 69.176 60.2859 69.176C59.7432 69.176 59.2299 69.0953 58.7459 68.934C58.2766 68.758 57.8439 68.538 57.4479 68.274C57.0666 67.9953 56.7439 67.6873 56.4799 67.35C56.2159 66.998 56.0252 66.6533 55.9079 66.316L56.3919 66.008V72.498C56.3919 72.7473 56.3112 72.96 56.1499 73.136C55.9886 73.312 55.7759 73.4 55.5119 73.4C55.2626 73.4 55.0499 73.312 54.8739 73.136C54.7126 72.9747 54.6319 72.762 54.6319 72.498V58.44C54.6319 58.1907 54.7126 57.9853 54.8739 57.824C55.0499 57.648 55.2626 57.56 55.5119 57.56C55.7759 57.56 55.9886 57.648 56.1499 57.824C56.3112 57.9853 56.3919 58.1907 56.3919 58.44V60.398L56.0619 60.222C56.1646 59.8553 56.3406 59.5033 56.5899 59.166C56.8539 58.8287 57.1692 58.5353 57.5359 58.286C57.9172 58.022 58.3352 57.8167 58.7899 57.67C59.2592 57.5233 59.7432 57.45 60.2419 57.45ZM60.0439 59.078C59.3106 59.078 58.6579 59.2613 58.0859 59.628C57.5286 59.9947 57.0886 60.4933 56.7659 61.124C56.4579 61.7547 56.3039 62.4807 56.3039 63.302C56.3039 64.1087 56.4579 64.8347 56.7659 65.48C57.0886 66.1253 57.5286 66.6313 58.0859 66.998C58.6579 67.3647 59.3106 67.548 60.0439 67.548C60.7772 67.548 61.4226 67.3647 61.9799 66.998C62.5372 66.6313 62.9772 66.1253 63.2999 65.48C63.6226 64.8347 63.7839 64.1087 63.7839 63.302C63.7839 62.4807 63.6226 61.7547 63.2999 61.124C62.9772 60.4933 62.5372 59.9947 61.9799 59.628C61.4226 59.2613 60.7772 59.078 60.0439 59.078ZM69.8396 68.098C69.8396 68.3473 69.7516 68.56 69.5756 68.736C69.4142 68.912 69.2089 69 68.9596 69C68.6956 69 68.4829 68.912 68.3216 68.736C68.1602 68.56 68.0796 68.3473 68.0796 68.098V58.33C68.0796 58.0807 68.1602 57.8753 68.3216 57.714C68.4976 57.538 68.7102 57.45 68.9596 57.45C69.2089 57.45 69.4142 57.538 69.5756 57.714C69.7516 57.8753 69.8396 58.0807 69.8396 58.33V68.098ZM68.9596 55.976C68.5929 55.976 68.3216 55.9027 68.1456 55.756C67.9696 55.6093 67.8816 55.382 67.8816 55.074V54.766C67.8816 54.458 67.9769 54.2307 68.1676 54.084C68.3582 53.9373 68.6296 53.864 68.9816 53.864C69.3336 53.864 69.5976 53.9373 69.7736 54.084C69.9496 54.2307 70.0376 54.458 70.0376 54.766V55.074C70.0376 55.382 69.9422 55.6093 69.7516 55.756C69.5756 55.9027 69.3116 55.976 68.9596 55.976ZM78.655 57.34C79.6524 57.34 80.437 57.5453 81.009 57.956C81.581 58.3667 81.9844 58.9167 82.219 59.606C82.4684 60.2953 82.593 61.0653 82.593 61.916V68.098C82.593 68.3473 82.505 68.56 82.329 68.736C82.1677 68.912 81.9624 69 81.713 69C81.4637 69 81.251 68.912 81.075 68.736C80.9137 68.56 80.833 68.3473 80.833 68.098V61.96C80.833 61.4027 80.745 60.904 80.569 60.464C80.4077 60.0093 80.129 59.65 79.733 59.386C79.3517 59.1073 78.8237 58.968 78.149 58.968C77.533 58.968 76.9684 59.1073 76.455 59.386C75.9417 59.65 75.531 60.0093 75.223 60.464C74.915 60.904 74.761 61.4027 74.761 61.96V68.098C74.761 68.3473 74.673 68.56 74.497 68.736C74.3357 68.912 74.1304 69 73.881 69C73.6317 69 73.419 68.912 73.243 68.736C73.0817 68.56 73.001 68.3473 73.001 68.098V58.506C73.001 58.2567 73.0817 58.0513 73.243 57.89C73.419 57.714 73.6317 57.626 73.881 57.626C74.145 57.626 74.3577 57.714 74.519 57.89C74.6804 58.0513 74.761 58.2567 74.761 58.506V60.068L74.321 60.552C74.3944 60.1707 74.563 59.7893 74.827 59.408C75.091 59.012 75.421 58.66 75.817 58.352C76.213 58.044 76.653 57.802 77.137 57.626C77.621 57.4353 78.127 57.34 78.655 57.34Z" fill="#0E533C"/>
<g clip-path="url(#clip0_33_148)">
<path fill-rule="evenodd" clip-rule="evenodd" d="M20 35.2783C20 34.9716 20.0943 34.6774 20.2621 34.4605C20.43 34.2437 20.6576 34.1218 20.8949 34.1218H34.2367C34.4741 34.1218 34.7017 34.2437 34.8696 34.4605C35.0374 34.6774 35.1317 34.9716 35.1317 35.2783C35.1317 35.5851 35.0374 35.8792 34.8696 36.0961C34.7017 36.313 34.4741 36.4348 34.2367 36.4348H20.8949C20.6576 36.4348 20.43 36.313 20.2621 36.0961C20.0943 35.8792 20 35.5851 20 35.2783ZM20 28.3392C20 28.0324 20.0943 27.7383 20.2621 27.5214C20.43 27.3045 20.6576 27.1826 20.8949 27.1826H30.7391C30.9765 27.1826 31.2041 27.3045 31.3719 27.5214C31.5398 27.7383 31.6341 28.0324 31.6341 28.3392C31.6341 28.6459 31.5398 28.9401 31.3719 29.157C31.2041 29.3738 30.9765 29.4957 30.7391 29.4957H20.8949C20.6576 29.4957 20.43 29.3738 20.2621 29.157C20.0943 28.9401 20 28.6459 20 28.3392ZM20 21.4C20 21.0933 20.0943 20.7991 20.2621 20.5822C20.43 20.3654 20.6576 20.2435 20.8949 20.2435H40.6522C40.8896 20.2435 41.1171 20.3654 41.285 20.5822C41.4528 20.7991 41.5472 21.0933 41.5472 21.4C41.5472 21.7068 41.4528 22.0009 41.285 22.2178C41.1171 22.4347 40.8896 22.5566 40.6522 22.5566H20.8949C20.6576 22.5566 20.43 22.4347 20.2621 22.2178C20.0943 22.0009 20 21.7068 20 21.4ZM20 14.4609C20 14.1542 20.0943 13.86 20.2621 13.6431C20.43 13.4262 20.6576 13.3044 20.8949 13.3044L45.1773 13.3044C45.4146 13.3044 45.6422 13.4262 45.8101 13.6431C45.978 13.86 46.0721 14.1542 46.0721 14.4609C46.0721 14.7676 45.978 15.0618 45.8101 15.2787C45.6422 15.4956 45.4146 15.6174 45.1773 15.6174H20.8949C20.6576 15.6174 20.43 15.4956 20.2621 15.2787C20.0943 15.0618 20 14.7676 20 14.4609Z" fill="#2D2D2D"/>
</g>
<g clip-path="url(#clip1_33_148)">
<path d="M58.1827 11.3655C57.6696 10.8509 57.0429 10.4639 56.3531 10.2355C55.6632 10.0071 54.9294 9.94367 54.2106 10.0503C53.4917 10.157 52.808 10.4307 52.2141 10.8496C51.6203 11.2685 51.1331 11.8208 50.7914 12.4621L44.5337 24.2029L35.8258 27.1056C35.5751 27.1889 35.3499 27.3348 35.1715 27.5296C34.9932 27.7245 34.8676 27.9616 34.8068 28.2187C34.7459 28.4758 34.7518 28.7441 34.8239 28.9982C34.896 29.2523 35.0318 29.4838 35.2186 29.6706L41.8696 36.3185L33.6697 44.5184L33.2174 47.1609L35.8598 46.7087L44.0598 38.5086L50.7078 45.1597C50.8945 45.3464 51.126 45.4822 51.3801 45.5544C51.6342 45.6265 51.9025 45.6323 52.1596 45.5715C52.4166 45.5107 52.6537 45.3851 52.8487 45.2067C53.0435 45.0284 53.1895 44.8032 53.2728 44.5526L56.1753 35.8476L67.882 29.5776C68.52 29.2353 69.0694 28.7487 69.4859 28.1564C69.9026 27.5641 70.175 26.8827 70.2816 26.1665C70.388 25.4503 70.3257 24.7191 70.0995 24.0313C69.8733 23.3434 69.4895 22.718 68.9787 22.2048L58.1827 11.3655Z" fill="#0E533C"/>
</g>
<defs>
<linearGradient id="paint0_linear_33_148" x1="46" y1="0" x2="46" y2="80" gradientUnits="userSpaceOnUse">
<stop stop-opacity="0"/>
<stop offset="1"/>
</linearGradient>
<clipPath id="clip0_33_148">
<rect width="26.4348" height="23.1304" fill="white" transform="translate(20 13.3044)"/>
</clipPath>
<clipPath id="clip1_33_148">
<rect width="38" height="38" fill="white" transform="translate(33.2174 10)"/>
</clipPath>
</defs>
</svg>
