<svg width="155" height="64" viewBox="0 0 155 64" fill="none" xmlns="http://www.w3.org/2000/svg">
<g clip-path="url(#clip0_111_157)">
<g clip-path="url(#clip1_111_157)">
<g clip-path="url(#clip2_111_157)">
<path fill-rule="evenodd" clip-rule="evenodd" d="M9 39.6131C9 39.3145 9.09181 39.028 9.25522 38.8168C9.41864 38.6057 9.64028 38.487 9.87138 38.487H22.8621C23.0932 38.487 23.3149 38.6057 23.4783 38.8168C23.6417 39.028 23.7335 39.3145 23.7335 39.6131C23.7335 39.9118 23.6417 40.1981 23.4783 40.4094C23.3149 40.6206 23.0932 40.7391 22.8621 40.7391H9.87138C9.64028 40.7391 9.41864 40.6206 9.25522 40.4094C9.09181 40.1981 9 39.9118 9 39.6131ZM9 32.8565C9 32.5579 9.09181 32.2715 9.25522 32.0603C9.41864 31.8491 9.64028 31.7305 9.87138 31.7305H19.4565C19.6876 31.7305 19.9093 31.8491 20.0727 32.0603C20.2361 32.2715 20.3279 32.5579 20.3279 32.8565C20.3279 33.1552 20.2361 33.4416 20.0727 33.6528C19.9093 33.864 19.6876 33.9826 19.4565 33.9826H9.87138C9.64028 33.9826 9.41864 33.864 9.25522 33.6528C9.09181 33.4416 9 33.1552 9 32.8565ZM9 26.1C9 25.8014 9.09181 25.5149 9.25522 25.3037C9.41864 25.0926 9.64028 24.9739 9.87138 24.9739H29.1087C29.3399 24.9739 29.5614 25.0926 29.7248 25.3037C29.8883 25.5149 29.9801 25.8014 29.9801 26.1C29.9801 26.3987 29.8883 26.6851 29.7248 26.8963C29.5614 27.1075 29.3399 27.2261 29.1087 27.2261H9.87138C9.64028 27.2261 9.41864 27.1075 9.25522 26.8963C9.09181 26.6851 9 26.3987 9 26.1ZM9 19.3435C9 19.0448 9.09181 18.7584 9.25522 18.5472C9.41864 18.336 9.64028 18.2174 9.87138 18.2174L33.5148 18.2174C33.7458 18.2174 33.9674 18.336 34.1309 18.5472C34.2943 18.7584 34.386 19.0448 34.386 19.3435C34.386 19.6422 34.2943 19.9286 34.1309 20.1398C33.9674 20.3509 33.7458 20.4696 33.5148 20.4696H9.87138C9.64028 20.4696 9.41864 20.3509 9.25522 20.1398C9.09181 19.9286 9 19.6422 9 19.3435Z" fill="#2D2D2D"/>
</g>
<g clip-path="url(#clip3_111_157)">
<path d="M46.1779 16.3296C45.6783 15.8286 45.0681 15.4517 44.3965 15.2293C43.7247 15.0069 43.0102 14.9451 42.3103 15.049C41.6104 15.1528 40.9447 15.4194 40.3664 15.8272C39.7882 16.2351 39.3138 16.7728 38.9811 17.3973L32.8881 28.8291L24.4093 31.6555C24.1652 31.7366 23.9459 31.8786 23.7723 32.0683C23.5986 32.2581 23.4764 32.4889 23.4171 32.7392C23.3579 32.9896 23.3636 33.2508 23.4338 33.4982C23.504 33.7457 23.6363 33.971 23.8181 34.153L30.2941 40.6259L22.31 48.61L21.8696 51.1829L24.4425 50.7426L32.4266 42.7584L38.8997 49.2345C39.0815 49.4163 39.3069 49.5485 39.5543 49.6188C39.8017 49.689 40.063 49.6946 40.3133 49.6354C40.5636 49.5762 40.7944 49.4539 40.9843 49.2802C41.1739 49.1066 41.3161 48.8873 41.3972 48.6433L44.2234 40.1674L55.6219 34.0624C56.2432 33.7291 56.7781 33.2553 57.1837 32.6786C57.5894 32.1019 57.8546 31.4385 57.9584 30.7411C58.062 30.0438 58.0014 29.3318 57.7811 28.6621C57.5609 27.9923 57.1872 27.3833 56.6898 26.8836L46.1779 16.3296Z" fill="#0E533C"/>
</g>
</g>
</g>
<path d="M72.238 28.45C73.2353 28.45 74.13 28.6993 74.922 29.198C75.714 29.6967 76.3373 30.386 76.792 31.266C77.2613 32.146 77.496 33.158 77.496 34.302C77.496 35.4313 77.2613 36.4433 76.792 37.338C76.3373 38.218 75.714 38.9147 74.922 39.428C74.1447 39.9267 73.2647 40.176 72.282 40.176C71.7393 40.176 71.226 40.0953 70.742 39.934C70.2727 39.758 69.84 39.538 69.444 39.274C69.0627 38.9953 68.74 38.6873 68.476 38.35C68.212 37.998 68.0213 37.6533 67.904 37.316L68.388 37.008V43.498C68.388 43.7473 68.3073 43.96 68.146 44.136C67.9847 44.312 67.772 44.4 67.508 44.4C67.2587 44.4 67.046 44.312 66.87 44.136C66.7087 43.9747 66.628 43.762 66.628 43.498V29.44C66.628 29.1907 66.7087 28.9853 66.87 28.824C67.046 28.648 67.2587 28.56 67.508 28.56C67.772 28.56 67.9847 28.648 68.146 28.824C68.3073 28.9853 68.388 29.1907 68.388 29.44V31.398L68.058 31.222C68.1607 30.8553 68.3367 30.5033 68.586 30.166C68.85 29.8287 69.1653 29.5353 69.532 29.286C69.9133 29.022 70.3313 28.8167 70.786 28.67C71.2553 28.5233 71.7393 28.45 72.238 28.45ZM72.04 30.078C71.3067 30.078 70.654 30.2613 70.082 30.628C69.5247 30.9947 69.0847 31.4933 68.762 32.124C68.454 32.7547 68.3 33.4807 68.3 34.302C68.3 35.1087 68.454 35.8347 68.762 36.48C69.0847 37.1253 69.5247 37.6313 70.082 37.998C70.654 38.3647 71.3067 38.548 72.04 38.548C72.7733 38.548 73.4187 38.3647 73.976 37.998C74.5333 37.6313 74.9733 37.1253 75.296 36.48C75.6187 35.8347 75.78 35.1087 75.78 34.302C75.78 33.4807 75.6187 32.7547 75.296 32.124C74.9733 31.4933 74.5333 30.9947 73.976 30.628C73.4187 30.2613 72.7733 30.078 72.04 30.078ZM82.0777 39.098C82.0777 39.3473 81.9897 39.56 81.8137 39.736C81.6377 39.912 81.425 40 81.1757 40C80.9263 40 80.721 39.912 80.5597 39.736C80.3983 39.56 80.3177 39.3473 80.3177 39.098V24.6C80.3177 24.3507 80.3983 24.1453 80.5597 23.984C80.7357 23.808 80.9483 23.72 81.1977 23.72C81.4617 23.72 81.6743 23.808 81.8357 23.984C81.997 24.1453 82.0777 24.3507 82.0777 24.6V39.098ZM94.8633 28.516C95.1126 28.516 95.3179 28.604 95.4793 28.78C95.6553 28.9413 95.7433 29.1467 95.7433 29.396V39.098C95.7433 39.3473 95.6553 39.56 95.4793 39.736C95.3179 39.912 95.1126 40 94.8633 40C94.5993 40 94.3866 39.912 94.2253 39.736C94.0639 39.56 93.9833 39.3473 93.9833 39.098V37.008L94.4013 36.964C94.4013 37.2867 94.2913 37.6387 94.0713 38.02C93.8513 38.4013 93.5506 38.7607 93.1693 39.098C92.7879 39.4207 92.3333 39.692 91.8053 39.912C91.2919 40.1173 90.7346 40.22 90.1333 40.22C89.1359 40.22 88.2413 39.9633 87.4493 39.45C86.6573 38.922 86.0266 38.2107 85.5573 37.316C85.1026 36.4213 84.8753 35.402 84.8753 34.258C84.8753 33.0993 85.1026 32.08 85.5573 31.2C86.0266 30.3053 86.6573 29.6087 87.4493 29.11C88.2413 28.5967 89.1213 28.34 90.0893 28.34C90.7199 28.34 91.3066 28.4427 91.8493 28.648C92.3919 28.8533 92.8613 29.132 93.2573 29.484C93.6679 29.836 93.9833 30.2247 94.2033 30.65C94.4379 31.0753 94.5553 31.5007 94.5553 31.926L93.9833 31.794V29.396C93.9833 29.1467 94.0639 28.9413 94.2253 28.78C94.3866 28.604 94.5993 28.516 94.8633 28.516ZM90.3313 38.592C91.0646 38.592 91.7099 38.4013 92.2673 38.02C92.8393 37.6387 93.2793 37.1253 93.5873 36.48C93.9099 35.82 94.0713 35.0793 94.0713 34.258C94.0713 33.4513 93.9099 32.7253 93.5873 32.08C93.2793 31.42 92.8393 30.9067 92.2673 30.54C91.7099 30.1587 91.0646 29.968 90.3313 29.968C89.6126 29.968 88.9673 30.1513 88.3953 30.518C87.8379 30.8847 87.3979 31.3907 87.0753 32.036C86.7526 32.6813 86.5913 33.422 86.5913 34.258C86.5913 35.0793 86.7453 35.82 87.0533 36.48C87.3759 37.1253 87.8159 37.6387 88.3733 38.02C88.9453 38.4013 89.5979 38.592 90.3313 38.592ZM104.659 28.34C105.656 28.34 106.441 28.5453 107.013 28.956C107.585 29.3667 107.988 29.9167 108.223 30.606C108.472 31.2953 108.597 32.0653 108.597 32.916V39.098C108.597 39.3473 108.509 39.56 108.333 39.736C108.172 39.912 107.966 40 107.717 40C107.468 40 107.255 39.912 107.079 39.736C106.918 39.56 106.837 39.3473 106.837 39.098V32.96C106.837 32.4027 106.749 31.904 106.573 31.464C106.412 31.0093 106.133 30.65 105.737 30.386C105.356 30.1073 104.828 29.968 104.153 29.968C103.537 29.968 102.972 30.1073 102.459 30.386C101.946 30.65 101.535 31.0093 101.227 31.464C100.919 31.904 100.765 32.4027 100.765 32.96V39.098C100.765 39.3473 100.677 39.56 100.501 39.736C100.34 39.912 100.134 40 99.885 40C99.6356 40 99.423 39.912 99.247 39.736C99.0856 39.56 99.005 39.3473 99.005 39.098V29.506C99.005 29.2567 99.0856 29.0513 99.247 28.89C99.423 28.714 99.6356 28.626 99.885 28.626C100.149 28.626 100.362 28.714 100.523 28.89C100.684 29.0513 100.765 29.2567 100.765 29.506V31.068L100.325 31.552C100.398 31.1707 100.567 30.7893 100.831 30.408C101.095 30.012 101.425 29.66 101.821 29.352C102.217 29.044 102.657 28.802 103.141 28.626C103.625 28.4353 104.131 28.34 104.659 28.34Z" fill="black"/>
<path d="M117.463 28.45C118.46 28.45 119.355 28.6993 120.147 29.198C120.939 29.6967 121.562 30.386 122.017 31.266C122.486 32.146 122.721 33.158 122.721 34.302C122.721 35.4313 122.486 36.4433 122.017 37.338C121.562 38.218 120.939 38.9147 120.147 39.428C119.369 39.9267 118.489 40.176 117.507 40.176C116.964 40.176 116.451 40.0953 115.967 39.934C115.497 39.758 115.065 39.538 114.669 39.274C114.287 38.9953 113.965 38.6873 113.701 38.35C113.437 37.998 113.246 37.6533 113.129 37.316L113.613 37.008V43.498C113.613 43.7473 113.532 43.96 113.371 44.136C113.209 44.312 112.997 44.4 112.733 44.4C112.483 44.4 112.271 44.312 112.095 44.136C111.933 43.9747 111.853 43.762 111.853 43.498V29.44C111.853 29.1907 111.933 28.9853 112.095 28.824C112.271 28.648 112.483 28.56 112.733 28.56C112.997 28.56 113.209 28.648 113.371 28.824C113.532 28.9853 113.613 29.1907 113.613 29.44V31.398L113.283 31.222C113.385 30.8553 113.561 30.5033 113.811 30.166C114.075 29.8287 114.39 29.5353 114.757 29.286C115.138 29.022 115.556 28.8167 116.011 28.67C116.48 28.5233 116.964 28.45 117.463 28.45ZM117.265 30.078C116.531 30.078 115.879 30.2613 115.307 30.628C114.749 30.9947 114.309 31.4933 113.987 32.124C113.679 32.7547 113.525 33.4807 113.525 34.302C113.525 35.1087 113.679 35.8347 113.987 36.48C114.309 37.1253 114.749 37.6313 115.307 37.998C115.879 38.3647 116.531 38.548 117.265 38.548C117.998 38.548 118.643 38.3647 119.201 37.998C119.758 37.6313 120.198 37.1253 120.521 36.48C120.843 35.8347 121.005 35.1087 121.005 34.302C121.005 33.4807 120.843 32.7547 120.521 32.124C120.198 31.4933 119.758 30.9947 119.201 30.628C118.643 30.2613 117.998 30.078 117.265 30.078ZM127.06 39.098C127.06 39.3473 126.972 39.56 126.796 39.736C126.635 39.912 126.43 40 126.18 40C125.916 40 125.704 39.912 125.542 39.736C125.381 39.56 125.3 39.3473 125.3 39.098V29.33C125.3 29.0807 125.381 28.8753 125.542 28.714C125.718 28.538 125.931 28.45 126.18 28.45C126.43 28.45 126.635 28.538 126.796 28.714C126.972 28.8753 127.06 29.0807 127.06 29.33V39.098ZM126.18 26.976C125.814 26.976 125.542 26.9027 125.366 26.756C125.19 26.6093 125.102 26.382 125.102 26.074V25.766C125.102 25.458 125.198 25.2307 125.388 25.084C125.579 24.9373 125.85 24.864 126.202 24.864C126.554 24.864 126.818 24.9373 126.994 25.084C127.17 25.2307 127.258 25.458 127.258 25.766V26.074C127.258 26.382 127.163 26.6093 126.972 26.756C126.796 26.9027 126.532 26.976 126.18 26.976ZM135.876 28.34C136.873 28.34 137.658 28.5453 138.23 28.956C138.802 29.3667 139.205 29.9167 139.44 30.606C139.689 31.2953 139.814 32.0653 139.814 32.916V39.098C139.814 39.3473 139.726 39.56 139.55 39.736C139.388 39.912 139.183 40 138.934 40C138.684 40 138.472 39.912 138.296 39.736C138.134 39.56 138.054 39.3473 138.054 39.098V32.96C138.054 32.4027 137.966 31.904 137.79 31.464C137.628 31.0093 137.35 30.65 136.954 30.386C136.572 30.1073 136.044 29.968 135.37 29.968C134.754 29.968 134.189 30.1073 133.676 30.386C133.162 30.65 132.752 31.0093 132.444 31.464C132.136 31.904 131.982 32.4027 131.982 32.96V39.098C131.982 39.3473 131.894 39.56 131.718 39.736C131.556 39.912 131.351 40 131.102 40C130.852 40 130.64 39.912 130.464 39.736C130.302 39.56 130.222 39.3473 130.222 39.098V29.506C130.222 29.2567 130.302 29.0513 130.464 28.89C130.64 28.714 130.852 28.626 131.102 28.626C131.366 28.626 131.578 28.714 131.74 28.89C131.901 29.0513 131.982 29.2567 131.982 29.506V31.068L131.542 31.552C131.615 31.1707 131.784 30.7893 132.048 30.408C132.312 30.012 132.642 29.66 133.038 29.352C133.434 29.044 133.874 28.802 134.358 28.626C134.842 28.4353 135.348 28.34 135.876 28.34Z" fill="#0E533C"/>
<defs>
<clipPath id="clip0_111_157">
<rect width="64" height="64" fill="white"/>
</clipPath>
<clipPath id="clip1_111_157">
<rect width="64" height="64" fill="white"/>
</clipPath>
<clipPath id="clip2_111_157">
<rect width="25.7391" height="22.5217" fill="white" transform="translate(9 18.2174)"/>
</clipPath>
<clipPath id="clip3_111_157">
<rect width="37" height="37" fill="white" transform="translate(21.8696 15)"/>
</clipPath>
</defs>
</svg>
