<svg width="23" height="15" viewBox="0 0 23 15" fill="none" xmlns="http://www.w3.org/2000/svg">
<path d="M5.5 15C4.04131 15 2.64236 14.4205 1.61091 13.3891C0.579463 12.3576 0 10.9587 0 9.5C0 8.04131 0.579463 6.64236 1.61091 5.61091C2.64236 4.57946 4.04131 4 5.5 4C6.5 1.65 8.8 0 11.5 0C14.93 0 17.74 2.66 18 6.03L18.5 6C21 6 23 8 23 10.5C23 13 21 15 18.5 15H5.5ZM5.5 5C3 5 1 7 1 9.5C1 12 3 14 5.5 14H18.5C19.4283 14 20.3185 13.6313 20.9749 12.9749C21.6313 12.3185 22 11.4283 22 10.5C22 9.57174 21.6313 8.6815 20.9749 8.02513C20.3185 7.36875 19.4283 7 18.5 7C17.94 7 17.4 7.13 16.93 7.37C17 7.09 17 6.8 17 6.5C17 5.04131 16.4205 3.64236 15.3891 2.61091C14.3576 1.57946 12.9587 1 11.5 1C10.2936 1.00067 9.12075 1.39725 8.16152 2.12888C7.20228 2.8605 6.50966 3.88672 6.19 5.05L5.5 5Z" fill="#2D2D2D"/>
</svg>
